<?xml version="1.0" encoding="UTF-8" standalone="no"?>
<svg xmlns="http://www.w3.org/2000/svg" height="75" width="78" version="1.1" viewBox="0 0 78 75">
 <g id="surface14315">
  <path style="fill:#fafaff" d="m16.598 70.711h44s13.597-41.848 13.597-41.848l-35.597-25.863-35.598 25.863 13.598 41.848z"/>
  <path style="fill:#c8c8ff" d="m19.598 66.094h38l11.742-36.141-30.742-22.336c0 0.0002-30.742 22.336-30.742 22.336-0.0005 0 11.742 36.141 11.742 36.141z"/>
  <path style="fill:#9595ff" d="m22.598 61.477h32l9.886-30.434-25.886-18.809-25.891 18.809 9.891 30.434z"/>
  <path style="fill:#6363ff" d="m25.598 56.859h26l8.035-24.726-21.035-15.285-21.036 15.285 8.036 24.726z"/>
  <path style="fill:#3131ff" d="m28.598 52.242h20l6.179-19.019-16.179-11.758-16.18 11.758 6.18 19.019z"/>
 </g>
</svg>
