<?xml version="1.0" encoding="UTF-8" standalone="no"?>
<svg xmlns="http://www.w3.org/2000/svg" height="67" width="67" version="1.1" viewBox="0 0 67 67">
 <g id="surface14309">
  <path style="fill-rule:evenodd" d="m63 33c0 16.57-13.43 30-30 30s-30-13.43-30-30 13.43-30 30-30 30 13.43 30 30z"/>
  <path style="fill-rule:evenodd;fill:#f00" d="m58 33c0 13.809-11.191 25-25 25s-25-11.191-25-25 11.191-25 25-25 25 11.191 25 25z"/>
  <path style="fill-rule:evenodd" d="m53 33c0 11.047-8.953 20-20 20s-20-8.953-20-20 8.953-20 20-20 20 8.953 20 20z"/>
  <path style="fill-rule:evenodd;fill:#f00" d="m48 33c0 8.285-6.715 15-15 15s-15-6.715-15-15 6.715-15 15-15 15 6.715 15 15z"/>
  <path style="fill-rule:evenodd" d="m43 33c0 5.523-4.477 10-10 10s-10-4.477-10-10 4.477-10 10-10 10 4.477 10 10z"/>
  <path style="fill-rule:evenodd;fill:#f00" d="m38 33c0 2.762-2.238 5-5 5s-5-2.238-5-5 2.238-5 5-5 5 2.238 5 5z"/>
 </g>
</svg>
