<?xml version="1.0" encoding="UTF-8" standalone="no"?>
<svg xmlns="http://www.w3.org/2000/svg" height="47" width="47" version="1.1" viewBox="0 0 47 47">
 <g id="surface14381">
  <path style="fill-rule:evenodd;fill:#218b21" d="m33 23c0 2.762-2.238 5-5 5s-5-2.238-5-5 2.238-5 5-5 5 2.238 5 5z"/>
  <path style="fill-rule:evenodd;fill:#218b21" d="m23 23c0 2.762-2.238 5-5 5s-5-2.238-5-5 2.238-5 5-5 5 2.238 5 5z"/>
  <path style="stroke:#000;stroke-linecap:round;stroke-miterlimit:10;fill:none" d="m43.5 23.5c0 11-9 20-21 20-11 0-20-9-19-21 0-11 8-19 20-19 11 0 20 8 20 20z"/>
 </g>
</svg>
