<?xml version="1.0" encoding="UTF-8" standalone="no"?>
<svg xmlns="http://www.w3.org/2000/svg" height="47" width="47" version="1.1" viewBox="0 0 47 47">
 <g id="surface14465">
  <path style="fill-rule:evenodd;fill:#bebebe" d="m43 23c0 11.047-8.953 20-20 20s-20-8.953-20-20 8.953-20 20-20 20 8.953 20 20z"/>
  <path style="fill-rule:evenodd;fill:#218b21" d="m23 23c0 2.762-2.238 5-5 5s-5-2.238-5-5 2.238-5 5-5 5 2.238 5 5z"/>
  <path style="fill-rule:evenodd;fill:#218b21" d="m33 23c0 2.762-2.238 5-5 5s-5-2.238-5-5 2.238-5 5-5 5 2.238 5 5z"/>
 </g>
</svg>
