<?xml version="1.0" encoding="UTF-8" standalone="no"?>
<svg xmlns="http://www.w3.org/2000/svg" height="77" width="87" version="1.1" viewBox="0 0 87 77">
 <g id="surface14483">
  <path style="fill-rule:evenodd;fill:#4b0081" d="m83 8c0 2.762-4.477 5-10 5s-10-2.238-10-5c0-2.7617 4.477-5 10-5s10 2.2383 10 5z"/>
  <path style="fill-rule:evenodd;fill:#9f20ef" d="m63 18c0 8.285-4.477 15-10 15s-10-6.715-10-15c0-8.2852 4.477-15 10-15s10 6.7148 10 15z"/>
  <path style="fill-rule:evenodd;fill:#9931cc" d="m43 28c0 13.809-4.477 25-10 25s-10-11.191-10-25 4.477-25 10-25 10 11.191 10 25z"/>
  <path style="fill-rule:evenodd;fill:#b954d2" d="m23 38c0 19.328-4.477 35-10 35-5.5234 0-10-15.672-10-35s4.4766-35 10-35c5.523 0 10 15.672 10 35z"/>
 </g>
</svg>
