<?xml version="1.0" encoding="UTF-8"?>
<svg xmlns="http://www.w3.org/2000/svg" xmlns:xlink="http://www.w3.org/1999/xlink" width="123" height="123" viewBox="0 0 123 123" version="1.1">
<g id="surface33130">
<path style=" stroke:none;fill-rule:nonzero;fill:rgb(18.431373%,30.980392%,30.980392%);fill-opacity:1;" d="M 66.152344 56.253906 C 66.152344 56.253906 85.3125 3 85.3125 3 C 85.3125 3 61.203125 54.203125 61.203125 54.203125 C 61.203125 54.203125 37.09375 3 37.09375 3 C 37.09375 3 56.253906 56.253906 56.253906 56.253906 C 56.253906 56.253906 3 37.09375 3 37.09375 C 3 37.09375 54.203125 61.203125 54.203125 61.203125 C 54.203125 61.203125 3 85.3125 3 85.3125 C 3 85.3125 56.253906 66.152344 56.253906 66.152344 C 56.253906 66.152344 37.09375 119.410156 37.09375 119.410156 C 37.09375 119.410156 61.203125 68.203125 61.203125 68.203125 C 61.203125 68.203125 85.3125 119.410156 85.3125 119.410156 C 85.3125 119.410156 66.152344 66.152344 66.152344 66.152344 C 66.152344 66.152344 119.410156 85.3125 119.410156 85.3125 C 119.410156 85.3125 68.203125 61.203125 68.203125 61.203125 C 68.203125 61.203125 119.410156 37.09375 119.410156 37.09375 C 119.410156 37.09375 66.152344 56.253906 66.152344 56.253906 Z M 66.152344 56.253906 "/>
</g>
</svg>
