<?xml version="1.0" encoding="UTF-8" standalone="no"?>
<svg xmlns="http://www.w3.org/2000/svg" height="85" width="85" version="1.1" viewBox="0 0 85 85">
 <g id="surface14171">
  <path style="stroke:#000;stroke-linecap:round;stroke-miterlimit:10;fill:none" d="m70.5 36.5l9-6h-11l8-7-11 2s6-8 6-8l-9 4 4-10-9 6s3-10 3-10l-8 8 1-11-6 9-2-10-4 9-4-9-1 10-6-9v11s-7-8-7-8l2 10-8-6 4 10-10-4s6 8 6 8l-10-2 8 7h-11l9 6-10 1 9 4-9 4 10 2-9 6 11-1-8 8 10-3-6 9 10-4-4 9 8-6-2 11s7-8 7-8v11l6-9 1 10 4-10 4 10 2-10 6 9-1-11 8 8-3-11 9 6-4-9 9 4-6-9 11 3-8-8 11 1-9-6 10-2-10-4 10-4-10-1z"/>
 </g>
</svg>
