<?xml version="1.0" encoding="UTF-8"?>
<svg xmlns="http://www.w3.org/2000/svg" xmlns:xlink="http://www.w3.org/1999/xlink" width="85" height="85" viewBox="0 0 85 85" version="1.1">
<g id="surface33136">
<path style="fill:none;stroke-width:1;stroke-linecap:round;stroke-linejoin:miter;stroke:rgb(0%,0%,0%);stroke-opacity:1;stroke-miterlimit:10;" d="M 70.5 36.5 C 70.5 36.5 79.5 30.5 79.5 30.5 C 79.5 30.5 68.5 30.5 68.5 30.5 C 68.5 30.5 76.5 23.5 76.5 23.5 C 76.5 23.5 65.5 25.5 65.5 25.5 C 65.5 25.5 71.5 17.5 71.5 17.5 C 71.5 17.5 62.5 21.5 62.5 21.5 C 62.5 21.5 66.5 11.5 66.5 11.5 C 66.5 11.5 57.5 17.5 57.5 17.5 C 57.5 17.5 60.5 7.5 60.5 7.5 C 60.5 7.5 52.5 15.5 52.5 15.5 C 52.5 15.5 53.5 4.5 53.5 4.5 C 53.5 4.5 47.5 13.5 47.5 13.5 C 47.5 13.5 45.5 3.5 45.5 3.5 C 45.5 3.5 41.5 12.5 41.5 12.5 C 41.5 12.5 37.5 3.5 37.5 3.5 C 37.5 3.5 36.5 13.5 36.5 13.5 C 36.5 13.5 30.5 4.5 30.5 4.5 C 30.5 4.5 30.5 15.5 30.5 15.5 C 30.5 15.5 23.5 7.5 23.5 7.5 C 23.5 7.5 25.5 17.5 25.5 17.5 C 25.5 17.5 17.5 11.5 17.5 11.5 C 17.5 11.5 21.5 21.5 21.5 21.5 C 21.5 21.5 11.5 17.5 11.5 17.5 C 11.5 17.5 17.5 25.5 17.5 25.5 C 17.5 25.5 7.5 23.5 7.5 23.5 C 7.5 23.5 15.5 30.5 15.5 30.5 C 15.5 30.5 4.5 30.5 4.5 30.5 C 4.5 30.5 13.5 36.5 13.5 36.5 C 13.5 36.5 3.5 37.5 3.5 37.5 C 3.5 37.5 12.5 41.5 12.5 41.5 C 12.5 41.5 3.5 45.5 3.5 45.5 C 3.5 45.5 13.5 47.5 13.5 47.5 C 13.5 47.5 4.5 53.5 4.5 53.5 C 4.5 53.5 15.5 52.5 15.5 52.5 C 15.5 52.5 7.5 60.5 7.5 60.5 C 7.5 60.5 17.5 57.5 17.5 57.5 C 17.5 57.5 11.5 66.5 11.5 66.5 C 11.5 66.5 21.5 62.5 21.5 62.5 C 21.5 62.5 17.5 71.5 17.5 71.5 C 17.5 71.5 25.5 65.5 25.5 65.5 C 25.5 65.5 23.5 76.5 23.5 76.5 C 23.5 76.5 30.5 68.5 30.5 68.5 C 30.5 68.5 30.5 79.5 30.5 79.5 C 30.5 79.5 36.5 70.5 36.5 70.5 C 36.5 70.5 37.5 80.5 37.5 80.5 C 37.5 80.5 41.5 70.5 41.5 70.5 C 41.5 70.5 45.5 80.5 45.5 80.5 C 45.5 80.5 47.5 70.5 47.5 70.5 C 47.5 70.5 53.5 79.5 53.5 79.5 C 53.5 79.5 52.5 68.5 52.5 68.5 C 52.5 68.5 60.5 76.5 60.5 76.5 C 60.5 76.5 57.5 65.5 57.5 65.5 C 57.5 65.5 66.5 71.5 66.5 71.5 C 66.5 71.5 62.5 62.5 62.5 62.5 C 62.5 62.5 71.5 66.5 71.5 66.5 C 71.5 66.5 65.5 57.5 65.5 57.5 C 65.5 57.5 76.5 60.5 76.5 60.5 C 76.5 60.5 68.5 52.5 68.5 52.5 C 68.5 52.5 79.5 53.5 79.5 53.5 C 79.5 53.5 70.5 47.5 70.5 47.5 C 70.5 47.5 80.5 45.5 80.5 45.5 C 80.5 45.5 70.5 41.5 70.5 41.5 C 70.5 41.5 80.5 37.5 80.5 37.5 C 80.5 37.5 70.5 36.5 70.5 36.5 Z M 70.5 36.5 "/>
</g>
</svg>
