<?xml version="1.0" encoding="UTF-8"?>
<svg xmlns="http://www.w3.org/2000/svg" xmlns:xlink="http://www.w3.org/1999/xlink" width="72" height="69" viewBox="0 0 72 69" version="1.1">
<g id="surface33124">
<path style=" stroke:none;fill-rule:nonzero;fill:rgb(39.215686%,58.431373%,92.941176%);fill-opacity:1;" d="M 25.359375 64.554688 C 25.359375 64.554688 67.722656 33.777344 67.722656 33.777344 C 67.722656 33.777344 25.359375 3 25.359375 3 C 25.359375 3 9.179688 52.796875 9.179688 52.796875 C 9.179688 52.796875 61.542969 52.796875 61.542969 52.796875 C 61.542969 52.796875 45.359375 3 45.359375 3 C 45.359375 3 3 33.777344 3 33.777344 C 3 33.777344 45.359375 64.554688 45.359375 64.554688 C 45.359375 64.554688 61.542969 14.753906 61.542969 14.753906 C 61.542969 14.753906 9.179688 14.753906 9.179688 14.753906 C 9.179688 14.753906 25.359375 64.554688 25.359375 64.554688 Z M 25.359375 64.554688 "/>
</g>
</svg>
