<?xml version="1.0" encoding="UTF-8"?>
<svg xmlns="http://www.w3.org/2000/svg" xmlns:xlink="http://www.w3.org/1999/xlink" width="167" height="97" viewBox="0 0 167 97" version="1.1">
<defs>
<clipPath id="clip1">
  <path d="M 3 3 L 163 3 L 163 93 L 3 93 Z M 3 3 "/>
</clipPath>
</defs>
<g id="surface33478">
<path style=" stroke:none;fill-rule:nonzero;fill:rgb(100%,100%,100%);fill-opacity:1;" d="M 3 3 C 3 3 163 3 163 3 C 163 3 163 93 163 93 C 163 93 3 93 3 93 C 3 93 3 3 3 3 Z M 3 3 "/>
<g clip-path="url(#clip1)" clip-rule="nonzero">
<path style="fill:none;stroke-width:2;stroke-linecap:round;stroke-linejoin:round;stroke:rgb(0%,0%,0%);stroke-opacity:1;stroke-miterlimit:10;" d="M 3 3 C 3 3 163 3 163 3 C 163 3 163 93 163 93 C 163 93 3 93 3 93 C 3 93 3 3 3 3 Z M 3 3 "/>
</g>
</g>
</svg>
