<?xml version="1.0" encoding="UTF-8"?>
<svg xmlns="http://www.w3.org/2000/svg" xmlns:xlink="http://www.w3.org/1999/xlink" width="67" height="67" viewBox="0 0 67 67" version="1.1">
<g id="surface33274">
<path style=" stroke:none;fill-rule:evenodd;fill:rgb(0%,0%,0%);fill-opacity:1;" d="M 63 33 C 63 49.570312 49.570312 63 33 63 C 16.429688 63 3 49.570312 3 33 C 3 16.429688 16.429688 3 33 3 C 49.570312 3 63 16.429688 63 33 Z M 63 33 "/>
<path style=" stroke:none;fill-rule:evenodd;fill:rgb(100%,0%,0%);fill-opacity:1;" d="M 58 33 C 58 46.808594 46.808594 58 33 58 C 19.191406 58 8 46.808594 8 33 C 8 19.191406 19.191406 8 33 8 C 46.808594 8 58 19.191406 58 33 Z M 58 33 "/>
<path style=" stroke:none;fill-rule:evenodd;fill:rgb(0%,0%,0%);fill-opacity:1;" d="M 53 33 C 53 44.046875 44.046875 53 33 53 C 21.953125 53 13 44.046875 13 33 C 13 21.953125 21.953125 13 33 13 C 44.046875 13 53 21.953125 53 33 Z M 53 33 "/>
<path style=" stroke:none;fill-rule:evenodd;fill:rgb(100%,0%,0%);fill-opacity:1;" d="M 48 33 C 48 41.285156 41.285156 48 33 48 C 24.714844 48 18 41.285156 18 33 C 18 24.714844 24.714844 18 33 18 C 41.285156 18 48 24.714844 48 33 Z M 48 33 "/>
<path style=" stroke:none;fill-rule:evenodd;fill:rgb(0%,0%,0%);fill-opacity:1;" d="M 43 33 C 43 38.523438 38.523438 43 33 43 C 27.476562 43 23 38.523438 23 33 C 23 27.476562 27.476562 23 33 23 C 38.523438 23 43 27.476562 43 33 Z M 43 33 "/>
<path style=" stroke:none;fill-rule:evenodd;fill:rgb(100%,0%,0%);fill-opacity:1;" d="M 38 33 C 38 35.761719 35.761719 38 33 38 C 30.238281 38 28 35.761719 28 33 C 28 30.238281 30.238281 28 33 28 C 35.761719 28 38 30.238281 38 33 Z M 38 33 "/>
</g>
</svg>
