<?xml version="1.0" encoding="UTF-8"?>
<svg xmlns="http://www.w3.org/2000/svg" xmlns:xlink="http://www.w3.org/1999/xlink" width="78" height="75" viewBox="0 0 78 75" version="1.1">
<g id="surface33280">
<path style=" stroke:none;fill-rule:nonzero;fill:rgb(98.039216%,98.039216%,100%);fill-opacity:1;" d="M 16.597656 70.710938 C 16.597656 70.710938 60.597656 70.710938 60.597656 70.710938 C 60.597656 70.710938 74.195312 28.863281 74.195312 28.863281 C 74.195312 28.863281 38.597656 3 38.597656 3 C 38.597656 3 3 28.863281 3 28.863281 C 3 28.863281 16.597656 70.710938 16.597656 70.710938 Z M 16.597656 70.710938 "/>
<path style=" stroke:none;fill-rule:nonzero;fill:rgb(78.431373%,78.431373%,100%);fill-opacity:1;" d="M 19.597656 66.09375 C 19.597656 66.09375 57.597656 66.09375 57.597656 66.09375 C 57.597656 66.09375 69.339844 29.953125 69.339844 29.953125 C 69.339844 29.953125 38.597656 7.617188 38.597656 7.617188 C 38.597656 7.617188 7.855469 29.953125 7.855469 29.953125 C 7.855469 29.953125 19.597656 66.09375 19.597656 66.09375 Z M 19.597656 66.09375 "/>
<path style=" stroke:none;fill-rule:nonzero;fill:rgb(58.823529%,58.823529%,100%);fill-opacity:1;" d="M 22.597656 61.476562 C 22.597656 61.476562 54.597656 61.476562 54.597656 61.476562 C 54.597656 61.476562 64.484375 31.042969 64.484375 31.042969 C 64.484375 31.042969 38.597656 12.234375 38.597656 12.234375 C 38.597656 12.234375 12.707031 31.042969 12.707031 31.042969 C 12.707031 31.042969 22.597656 61.476562 22.597656 61.476562 Z M 22.597656 61.476562 "/>
<path style=" stroke:none;fill-rule:nonzero;fill:rgb(39.215686%,39.215686%,100%);fill-opacity:1;" d="M 25.597656 56.859375 C 25.597656 56.859375 51.597656 56.859375 51.597656 56.859375 C 51.597656 56.859375 59.632812 32.132812 59.632812 32.132812 C 59.632812 32.132812 38.597656 16.847656 38.597656 16.847656 C 38.597656 16.847656 17.5625 32.132812 17.5625 32.132812 C 17.5625 32.132812 25.597656 56.859375 25.597656 56.859375 Z M 25.597656 56.859375 "/>
<path style=" stroke:none;fill-rule:nonzero;fill:rgb(19.607843%,19.607843%,100%);fill-opacity:1;" d="M 28.597656 52.242188 C 28.597656 52.242188 48.597656 52.242188 48.597656 52.242188 C 48.597656 52.242188 54.777344 33.222656 54.777344 33.222656 C 54.777344 33.222656 38.597656 21.464844 38.597656 21.464844 C 38.597656 21.464844 22.417969 33.222656 22.417969 33.222656 C 22.417969 33.222656 28.597656 52.242188 28.597656 52.242188 Z M 28.597656 52.242188 "/>
</g>
</svg>
