<?xml version="1.0" encoding="UTF-8"?>
<svg xmlns="http://www.w3.org/2000/svg" xmlns:xlink="http://www.w3.org/1999/xlink" width="47" height="47" viewBox="0 0 47 47" version="1.1">
<g id="surface33346">
<path style=" stroke:none;fill-rule:evenodd;fill:rgb(13.333333%,54.509804%,13.333333%);fill-opacity:1;" d="M 33 23 C 33 25.761719 30.761719 28 28 28 C 25.238281 28 23 25.761719 23 23 C 23 20.238281 25.238281 18 28 18 C 30.761719 18 33 20.238281 33 23 Z M 33 23 "/>
<path style=" stroke:none;fill-rule:evenodd;fill:rgb(13.333333%,54.509804%,13.333333%);fill-opacity:1;" d="M 23 23 C 23 25.761719 20.761719 28 18 28 C 15.238281 28 13 25.761719 13 23 C 13 20.238281 15.238281 18 18 18 C 20.761719 18 23 20.238281 23 23 Z M 23 23 "/>
<path style="fill:none;stroke-width:1;stroke-linecap:round;stroke-linejoin:miter;stroke:rgb(0%,0%,0%);stroke-opacity:1;stroke-miterlimit:10;" d="M 43.5 23.5 C 43.5 34.5 34.5 43.5 22.5 43.5 C 11.5 43.5 2.5 34.5 3.5 22.5 C 3.5 11.5 11.5 3.5 23.5 3.5 C 34.5 3.5 43.5 11.5 43.5 23.5 Z M 43.5 23.5 "/>
</g>
</svg>
