<?xml version="1.0" encoding="UTF-8"?>
<svg xmlns="http://www.w3.org/2000/svg" xmlns:xlink="http://www.w3.org/1999/xlink" width="57" height="57" viewBox="0 0 57 57" version="1.1">
<g id="surface33292">
<path style=" stroke:none;fill-rule:nonzero;fill:rgb(18.039216%,54.509804%,34.117647%);fill-opacity:1;" d="M 3 3 C 3 3 53 3 53 3 C 53 3 53 53 53 53 C 53 53 3 53 3 53 C 3 53 3 3 3 3 Z M 3 3 "/>
<path style=" stroke:none;fill-rule:nonzero;fill:rgb(75.294118%,75.294118%,75.294118%);fill-opacity:1;" d="M 13 13 C 13 13 53 13 53 13 C 53 13 53 53 53 53 C 53 53 13 53 13 53 C 13 53 13 13 13 13 Z M 13 13 "/>
<path style=" stroke:none;fill-rule:nonzero;fill:rgb(18.039216%,54.509804%,34.117647%);fill-opacity:1;" d="M 23 23 C 23 23 53 23 53 23 C 53 23 53 53 53 53 C 53 53 23 53 23 53 C 23 53 23 23 23 23 Z M 23 23 "/>
<path style=" stroke:none;fill-rule:nonzero;fill:rgb(75.294118%,75.294118%,75.294118%);fill-opacity:1;" d="M 33 33 C 33 33 53 33 53 33 C 53 33 53 53 53 53 C 53 53 33 53 33 53 C 33 53 33 33 33 33 Z M 33 33 "/>
</g>
</svg>
