<?xml version="1.0" encoding="UTF-8"?>
<svg xmlns="http://www.w3.org/2000/svg" xmlns:xlink="http://www.w3.org/1999/xlink" width="67" height="67" viewBox="0 0 67 67" version="1.1">
<g id="surface33358">
<path style=" stroke:none;fill-rule:evenodd;fill:rgb(100%,0%,0%);fill-opacity:1;" d="M 38 33 C 38 49.570312 35.761719 63 33 63 C 30.238281 63 28 49.570312 28 33 C 28 16.429688 30.238281 3 33 3 C 35.761719 3 38 16.429688 38 33 Z M 38 33 "/>
<path style=" stroke:none;fill-rule:evenodd;fill:rgb(0%,0%,0%);fill-opacity:1;" d="M 43 33 C 43 46.808594 38.523438 58 33 58 C 27.476562 58 23 46.808594 23 33 C 23 19.191406 27.476562 8 33 8 C 38.523438 8 43 19.191406 43 33 Z M 43 33 "/>
<path style=" stroke:none;fill-rule:evenodd;fill:rgb(100%,0%,0%);fill-opacity:1;" d="M 48 33 C 48 44.046875 41.285156 53 33 53 C 24.714844 53 18 44.046875 18 33 C 18 21.953125 24.714844 13 33 13 C 41.285156 13 48 21.953125 48 33 Z M 48 33 "/>
<path style=" stroke:none;fill-rule:evenodd;fill:rgb(0%,0%,0%);fill-opacity:1;" d="M 53 33 C 53 41.285156 44.046875 48 33 48 C 21.953125 48 13 41.285156 13 33 C 13 24.714844 21.953125 18 33 18 C 44.046875 18 53 24.714844 53 33 Z M 53 33 "/>
<path style=" stroke:none;fill-rule:evenodd;fill:rgb(100%,0%,0%);fill-opacity:1;" d="M 58 33 C 58 38.523438 46.808594 43 33 43 C 19.191406 43 8 38.523438 8 33 C 8 27.476562 19.191406 23 33 23 C 46.808594 23 58 27.476562 58 33 Z M 58 33 "/>
<path style=" stroke:none;fill-rule:evenodd;fill:rgb(0%,0%,0%);fill-opacity:1;" d="M 63 33 C 63 35.761719 49.570312 38 33 38 C 16.429688 38 3 35.761719 3 33 C 3 30.238281 16.429688 28 33 28 C 49.570312 28 63 30.238281 63 33 Z M 63 33 "/>
</g>
</svg>
