<?xml version="1.0" encoding="UTF-8" standalone="no"?>
<svg xmlns="http://www.w3.org/2000/svg" height="67" width="67" version="1.1" viewBox="0 0 67 67">
 <g id="surface14399">
  <path style="fill-rule:evenodd;fill:#f00;fill-opacity:.15686" d="m38 33c0 16.57-2.238 30-5 30s-5-13.43-5-30 2.238-30 5-30 5 13.43 5 30z"/>
  <path style="fill-rule:evenodd;fill:#f00;fill-opacity:.15686" d="m43 33c0 13.809-4.477 25-10 25s-10-11.191-10-25 4.477-25 10-25 10 11.191 10 25z"/>
  <path style="fill-rule:evenodd;fill:#f00;fill-opacity:.15686" d="m48 33c0 11.047-6.715 20-15 20s-15-8.953-15-20 6.715-20 15-20 15 8.953 15 20z"/>
  <path style="fill-rule:evenodd;fill:#f00;fill-opacity:.15686" d="m53 33c0 8.285-8.953 15-20 15s-20-6.715-20-15 8.953-15 20-15 20 6.715 20 15z"/>
  <path style="fill-rule:evenodd;fill:#f00;fill-opacity:.15686" d="m58 33c0 5.523-11.191 10-25 10s-25-4.477-25-10 11.191-10 25-10 25 4.477 25 10z"/>
  <path style="fill-rule:evenodd;fill:#f00;fill-opacity:.15686" d="m63 33c0 2.762-13.43 5-30 5s-30-2.238-30-5 13.43-5 30-5 30 2.238 30 5z"/>
 </g>
</svg>
