<?xml version="1.0" encoding="UTF-8"?>
<svg xmlns="http://www.w3.org/2000/svg" xmlns:xlink="http://www.w3.org/1999/xlink" width="47" height="47" viewBox="0 0 47 47" version="1.1">
<g id="surface33430">
<path style=" stroke:none;fill-rule:evenodd;fill:rgb(74.509804%,74.509804%,74.509804%);fill-opacity:1;" d="M 43 23 C 43 34.046875 34.046875 43 23 43 C 11.953125 43 3 34.046875 3 23 C 3 11.953125 11.953125 3 23 3 C 34.046875 3 43 11.953125 43 23 Z M 43 23 "/>
<path style=" stroke:none;fill-rule:evenodd;fill:rgb(13.333333%,54.509804%,13.333333%);fill-opacity:1;" d="M 23 23 C 23 25.761719 20.761719 28 18 28 C 15.238281 28 13 25.761719 13 23 C 13 20.238281 15.238281 18 18 18 C 20.761719 18 23 20.238281 23 23 Z M 23 23 "/>
<path style=" stroke:none;fill-rule:evenodd;fill:rgb(13.333333%,54.509804%,13.333333%);fill-opacity:1;" d="M 33 23 C 33 25.761719 30.761719 28 28 28 C 25.238281 28 23 25.761719 23 23 C 23 20.238281 25.238281 18 28 18 C 30.761719 18 33 20.238281 33 23 Z M 33 23 "/>
</g>
</svg>
