<?xml version="1.0" encoding="UTF-8"?>
<svg xmlns="http://www.w3.org/2000/svg" xmlns:xlink="http://www.w3.org/1999/xlink" width="57" height="57" viewBox="0 0 57 57" version="1.1">
<g id="surface33376">
<path style=" stroke:none;fill-rule:nonzero;fill:rgb(18.039216%,54.509804%,34.117647%);fill-opacity:1;" d="M 3 3 C 3 3 53 3 53 3 C 53 3 53 53 53 53 C 53 53 3 53 3 53 C 3 53 3 3 3 3 Z M 3 3 "/>
<path style=" stroke:none;fill-rule:nonzero;fill:rgb(75.294118%,75.294118%,75.294118%);fill-opacity:1;" d="M 13 3 C 13 3 53 3 53 3 C 53 3 53 43 53 43 C 53 43 13 43 13 43 C 13 43 13 3 13 3 Z M 13 3 "/>
<path style=" stroke:none;fill-rule:nonzero;fill:rgb(18.039216%,54.509804%,34.117647%);fill-opacity:1;" d="M 23 3 C 23 3 53 3 53 3 C 53 3 53 33 53 33 C 53 33 23 33 23 33 C 23 33 23 3 23 3 Z M 23 3 "/>
<path style=" stroke:none;fill-rule:nonzero;fill:rgb(75.294118%,75.294118%,75.294118%);fill-opacity:1;" d="M 33 3 C 33 3 53 3 53 3 C 53 3 53 23 53 23 C 53 23 33 23 33 23 C 33 23 33 3 33 3 Z M 33 3 "/>
</g>
</svg>
