<?xml version="1.0" encoding="UTF-8"?>
<svg xmlns="http://www.w3.org/2000/svg" xmlns:xlink="http://www.w3.org/1999/xlink" width="57" height="57" viewBox="0 0 57 57" version="1.1">
<g id="surface33382">
<path style=" stroke:none;fill-rule:nonzero;fill:rgb(18.039216%,54.509804%,34.117647%);fill-opacity:0.196078;" d="M 3 3 C 3 3 53 3 53 3 C 53 3 53 53 53 53 C 53 53 3 53 3 53 C 3 53 3 3 3 3 Z M 3 3 "/>
<path style=" stroke:none;fill-rule:nonzero;fill:rgb(18.039216%,54.509804%,34.117647%);fill-opacity:0.196078;" d="M 3 8 C 3 8 43 8 43 8 C 43 8 43 48 43 48 C 43 48 3 48 3 48 C 3 48 3 8 3 8 Z M 3 8 "/>
<path style=" stroke:none;fill-rule:nonzero;fill:rgb(18.039216%,54.509804%,34.117647%);fill-opacity:0.196078;" d="M 3 13 C 3 13 33 13 33 13 C 33 13 33 43 33 43 C 33 43 3 43 3 43 C 3 43 3 13 3 13 Z M 3 13 "/>
<path style=" stroke:none;fill-rule:nonzero;fill:rgb(18.039216%,54.509804%,34.117647%);fill-opacity:0.196078;" d="M 3 18 C 3 18 23 18 23 18 C 23 18 23 38 23 38 C 23 38 3 38 3 38 C 3 38 3 18 3 18 Z M 3 18 "/>
</g>
</svg>
