<?xml version="1.0" encoding="UTF-8"?>
<svg xmlns="http://www.w3.org/2000/svg" xmlns:xlink="http://www.w3.org/1999/xlink" width="87" height="77" viewBox="0 0 87 77" version="1.1">
<g id="surface33442">
<path style=" stroke:none;fill-rule:evenodd;fill:rgb(14.117647%,14.117647%,54.901961%);fill-opacity:1;" d="M 83 68 C 83 70.761719 78.523438 73 73 73 C 67.476562 73 63 70.761719 63 68 C 63 65.238281 67.476562 63 73 63 C 78.523438 63 83 65.238281 83 68 Z M 83 68 "/>
<path style=" stroke:none;fill-rule:evenodd;fill:rgb(41.568627%,35.294118%,80.392157%);fill-opacity:1;" d="M 63 58 C 63 66.285156 58.523438 73 53 73 C 47.476562 73 43 66.285156 43 58 C 43 49.714844 47.476562 43 53 43 C 58.523438 43 63 49.714844 63 58 Z M 63 58 "/>
<path style=" stroke:none;fill-rule:evenodd;fill:rgb(48.235294%,40.784314%,93.333333%);fill-opacity:1;" d="M 43 48 C 43 61.808594 38.523438 73 33 73 C 27.476562 73 23 61.808594 23 48 C 23 34.191406 27.476562 23 33 23 C 38.523438 23 43 34.191406 43 48 Z M 43 48 "/>
<path style=" stroke:none;fill-rule:evenodd;fill:rgb(69.019608%,76.862745%,87.058824%);fill-opacity:1;" d="M 23 38 C 23 57.328125 18.523438 73 13 73 C 7.476562 73 3 57.328125 3 38 C 3 18.671875 7.476562 3 13 3 C 18.523438 3 23 18.671875 23 38 Z M 23 38 "/>
</g>
</svg>
