<?xml version="1.0" encoding="UTF-8"?>
<svg xmlns="http://www.w3.org/2000/svg" xmlns:xlink="http://www.w3.org/1999/xlink" width="87" height="77" viewBox="0 0 87 77" version="1.1">
<g id="surface33448">
<path style=" stroke:none;fill-rule:evenodd;fill:rgb(29.411765%,0%,50.980392%);fill-opacity:1;" d="M 83 8 C 83 10.761719 78.523438 13 73 13 C 67.476562 13 63 10.761719 63 8 C 63 5.238281 67.476562 3 73 3 C 78.523438 3 83 5.238281 83 8 Z M 83 8 "/>
<path style=" stroke:none;fill-rule:evenodd;fill:rgb(62.745098%,12.54902%,94.117647%);fill-opacity:1;" d="M 63 18 C 63 26.285156 58.523438 33 53 33 C 47.476562 33 43 26.285156 43 18 C 43 9.714844 47.476562 3 53 3 C 58.523438 3 63 9.714844 63 18 Z M 63 18 "/>
<path style=" stroke:none;fill-rule:evenodd;fill:rgb(60%,19.607843%,80%);fill-opacity:1;" d="M 43 28 C 43 41.808594 38.523438 53 33 53 C 27.476562 53 23 41.808594 23 28 C 23 14.191406 27.476562 3 33 3 C 38.523438 3 43 14.191406 43 28 Z M 43 28 "/>
<path style=" stroke:none;fill-rule:evenodd;fill:rgb(72.941176%,33.333333%,82.745098%);fill-opacity:1;" d="M 23 38 C 23 57.328125 18.523438 73 13 73 C 7.476562 73 3 57.328125 3 38 C 3 18.671875 7.476562 3 13 3 C 18.523438 3 23 18.671875 23 38 Z M 23 38 "/>
</g>
</svg>
