<?xml version="1.0" encoding="UTF-8"?>
<svg xmlns="http://www.w3.org/2000/svg" xmlns:xlink="http://www.w3.org/1999/xlink" width="77" height="87" viewBox="0 0 77 87" version="1.1">
<g id="surface33460">
<path style=" stroke:none;fill-rule:evenodd;fill:rgb(0%,0%,0%);fill-opacity:1;" d="M 43 73 C 43 78.523438 40.761719 83 38 83 C 35.238281 83 33 78.523438 33 73 C 33 67.476562 35.238281 63 38 63 C 40.761719 63 43 67.476562 43 73 Z M 43 73 "/>
<path style=" stroke:none;fill-rule:evenodd;fill:rgb(41.176471%,41.176471%,41.176471%);fill-opacity:1;" d="M 53 53 C 53 58.523438 46.285156 63 38 63 C 29.714844 63 23 58.523438 23 53 C 23 47.476562 29.714844 43 38 43 C 46.285156 43 53 47.476562 53 53 Z M 53 53 "/>
<path style=" stroke:none;fill-rule:evenodd;fill:rgb(66.27451%,66.27451%,66.27451%);fill-opacity:1;" d="M 63 33 C 63 38.523438 51.808594 43 38 43 C 24.191406 43 13 38.523438 13 33 C 13 27.476562 24.191406 23 38 23 C 51.808594 23 63 27.476562 63 33 Z M 63 33 "/>
<path style=" stroke:none;fill-rule:evenodd;fill:rgb(74.509804%,74.509804%,74.509804%);fill-opacity:1;" d="M 73 13 C 73 18.523438 57.328125 23 38 23 C 18.671875 23 3 18.523438 3 13 C 3 7.476562 18.671875 3 38 3 C 57.328125 3 73 7.476562 73 13 Z M 73 13 "/>
</g>
</svg>
