<?xml version="1.0" encoding="UTF-8" standalone="no"?>
<svg xmlns="http://www.w3.org/2000/svg" height="87" width="77" version="1.1" viewBox="0 0 77 87">
 <g id="surface14501">
  <path style="fill-rule:evenodd;fill:#9f522d" d="m73 73c0 5.523-2.238 10-5 10s-5-4.477-5-10 2.238-10 5-10 5 4.477 5 10z"/>
  <path style="fill-rule:evenodd;fill:#b8860a" d="m73 53c0 5.523-6.715 10-15 10s-15-4.477-15-10 6.715-10 15-10 15 4.477 15 10z"/>
  <path style="fill-rule:evenodd;fill:#d9a420" d="m73 33c0 5.523-11.191 10-25 10s-25-4.477-25-10 11.191-10 25-10 25 4.477 25 10z"/>
  <path style="fill-rule:evenodd;fill:#ffd600" d="m73 13c0 5.523-15.672 10-35 10s-35-4.477-35-10c0-5.5234 15.672-10 35-10s35 4.4766 35 10z"/>
 </g>
</svg>
