<?xml version="1.0" encoding="UTF-8"?>
<svg xmlns="http://www.w3.org/2000/svg" xmlns:xlink="http://www.w3.org/1999/xlink" width="77" height="87" viewBox="0 0 77 87" version="1.1">
<g id="surface33466">
<path style=" stroke:none;fill-rule:evenodd;fill:rgb(62.745098%,32.156863%,17.647059%);fill-opacity:1;" d="M 73 73 C 73 78.523438 70.761719 83 68 83 C 65.238281 83 63 78.523438 63 73 C 63 67.476562 65.238281 63 68 63 C 70.761719 63 73 67.476562 73 73 Z M 73 73 "/>
<path style=" stroke:none;fill-rule:evenodd;fill:rgb(72.156863%,52.54902%,4.313725%);fill-opacity:1;" d="M 73 53 C 73 58.523438 66.285156 63 58 63 C 49.714844 63 43 58.523438 43 53 C 43 47.476562 49.714844 43 58 43 C 66.285156 43 73 47.476562 73 53 Z M 73 53 "/>
<path style=" stroke:none;fill-rule:evenodd;fill:rgb(85.490196%,64.705882%,12.54902%);fill-opacity:1;" d="M 73 33 C 73 38.523438 61.808594 43 48 43 C 34.191406 43 23 38.523438 23 33 C 23 27.476562 34.191406 23 48 23 C 61.808594 23 73 27.476562 73 33 Z M 73 33 "/>
<path style=" stroke:none;fill-rule:evenodd;fill:rgb(100%,84.313725%,0%);fill-opacity:1;" d="M 73 13 C 73 18.523438 57.328125 23 38 23 C 18.671875 23 3 18.523438 3 13 C 3 7.476562 18.671875 3 38 3 C 57.328125 3 73 7.476562 73 13 Z M 73 13 "/>
</g>
</svg>
