<?xml version="1.0" encoding="UTF-8" standalone="no"?>
<svg xmlns="http://www.w3.org/2000/svg" height="39" width="167" version="1.1" viewBox="0 0 167 39">
 <defs>
  <clipPath id="clip1">
   <path d="m131 3h32v32h-32z"/>
  </clipPath>
  <clipPath id="clip2">
   <path d="m155 27h8v8h-8z"/>
  </clipPath>
  <clipPath id="clip3">
   <path d="m99 3h32v32h-32z"/>
  </clipPath>
  <clipPath id="clip4">
   <path d="m67 3h32v32h-32z"/>
  </clipPath>
  <clipPath id="clip5">
   <path d="m35 3h32v32h-32z"/>
  </clipPath>
  <clipPath id="clip6">
   <path d="m3 3h32v32h-32z"/>
  </clipPath>
  <clipPath id="clip7">
   <path d="m3 3h8v8h-8z"/>
  </clipPath>
 </defs>
 <g id="surface14543">
  <g clip-path="url(#clip1)">
   <path style="stroke:#000;stroke-linecap:round;stroke-miterlimit:10;fill:none" d="m131.5 3.5h32v32h-32v-32z"/>
  </g>
  <g clip-path="url(#clip2)">
   <path style="fill-rule:evenodd;fill:#ff6246" d="m171 35c0 4.418-3.58 8-8 8s-8-3.582-8-8 3.58-8 8-8 8 3.582 8 8z"/>
  </g>
  <g clip-path="url(#clip3)">
   <path style="stroke:#000;stroke-linecap:round;stroke-miterlimit:10;fill:none" d="m99.5 3.5h32v32h-32v-32z"/>
  </g>
  <path style="fill-rule:evenodd;fill:#ff6246" d="m131 27c0 4.418-3.58 8-8 8s-8-3.582-8-8 3.58-8 8-8 8 3.582 8 8z"/>
  <g clip-path="url(#clip4)">
   <path style="stroke:#000;stroke-linecap:round;stroke-miterlimit:10;fill:none" d="m67.5 3.5h32v32h-32v-32z"/>
  </g>
  <path style="fill-rule:evenodd;fill:#ff6246" d="m91 19c0 4.418-3.582 8-8 8s-8-3.582-8-8 3.582-8 8-8 8 3.582 8 8z"/>
  <g clip-path="url(#clip5)">
   <path style="stroke:#000;stroke-linecap:round;stroke-miterlimit:10;fill:none" d="m35.5 3.5h32v32h-32v-32z"/>
  </g>
  <path style="fill-rule:evenodd;fill:#ff6246" d="m51 11c0 4.418-3.582 8-8 8s-8-3.582-8-8 3.582-8 8-8 8 3.582 8 8z"/>
  <g clip-path="url(#clip6)">
   <path style="stroke:#000;stroke-linecap:round;stroke-miterlimit:10;fill:none" d="m3.5 3.5h32v32h-32v-32z"/>
  </g>
  <g clip-path="url(#clip7)">
   <path style="fill-rule:evenodd;fill:#ff6246" d="m11 3c0 4.418-3.582 8-8 8s-8-3.582-8-8 3.582-8 8-8 8 3.582 8 8z"/>
  </g>
 </g>
</svg>
