<?xml version="1.0" encoding="UTF-8"?>
<svg xmlns="http://www.w3.org/2000/svg" xmlns:xlink="http://www.w3.org/1999/xlink" width="77" height="87" viewBox="0 0 77 87" version="1.1">
<g id="surface33472">
<path style=" stroke:none;fill-rule:evenodd;fill:rgb(0%,39.215686%,0%);fill-opacity:1;" d="M 13 73 C 13 78.523438 10.761719 83 8 83 C 5.238281 83 3 78.523438 3 73 C 3 67.476562 5.238281 63 8 63 C 10.761719 63 13 67.476562 13 73 Z M 13 73 "/>
<path style=" stroke:none;fill-rule:evenodd;fill:rgb(33.333333%,41.960784%,18.431373%);fill-opacity:1;" d="M 33 53 C 33 58.523438 26.285156 63 18 63 C 9.714844 63 3 58.523438 3 53 C 3 47.476562 9.714844 43 18 43 C 26.285156 43 33 47.476562 33 53 Z M 33 53 "/>
<path style=" stroke:none;fill-rule:evenodd;fill:rgb(41.960784%,55.686275%,13.72549%);fill-opacity:1;" d="M 53 33 C 53 38.523438 41.808594 43 28 43 C 14.191406 43 3 38.523438 3 33 C 3 27.476562 14.191406 23 28 23 C 41.808594 23 53 27.476562 53 33 Z M 53 33 "/>
<path style=" stroke:none;fill-rule:evenodd;fill:rgb(60.392157%,80.392157%,19.607843%);fill-opacity:1;" d="M 73 13 C 73 18.523438 57.328125 23 38 23 C 18.671875 23 3 18.523438 3 13 C 3 7.476562 18.671875 3 38 3 C 57.328125 3 73 7.476562 73 13 Z M 73 13 "/>
</g>
</svg>
