<?xml version="1.0" encoding="UTF-8" standalone="no"?>
<svg xmlns="http://www.w3.org/2000/svg" height="87" width="87" version="1.1" viewBox="0 0 87 87">
 <defs>
  <clipPath id="clip1">
   <path d="m43 43h40v40h-40z"/>
  </clipPath>
  <clipPath id="clip2">
   <path d="m3 43h40v40h-40z"/>
  </clipPath>
  <clipPath id="clip3">
   <path d="m43 3h40v40h-40z"/>
  </clipPath>
  <clipPath id="clip4">
   <path d="m3 3h40v40h-40z"/>
  </clipPath>
 </defs>
 <g id="surface14669">
  <g clip-path="url(#clip1)">
   <path style="fill-rule:evenodd;fill:#db7093" d="m123 83c0 22.09-17.91 40-40 40s-40-17.91-40-40 17.91-40 40-40 40 17.91 40 40z"/>
  </g>
  <g clip-path="url(#clip2)">
   <path style="fill-rule:evenodd;fill:#ef7f7f" d="m43 83c0 22.09-17.91 40-40 40s-40-17.91-40-40 17.91-40 40-40 40 17.91 40 40z"/>
  </g>
  <g clip-path="url(#clip3)">
   <path style="fill-rule:evenodd;fill:#ef7f7f" d="m123 3c0 22.09-17.91 40-40 40s-40-17.91-40-40 17.91-40 40-40 40 17.91 40 40z"/>
  </g>
  <g clip-path="url(#clip4)">
   <path style="fill-rule:evenodd;fill:#db7093" d="m43 3c0 22.09-17.91 40-40 40s-40-17.91-40-40 17.91-40 40-40 40 17.91 40 40z"/>
  </g>
 </g>
</svg>
