<?xml version="1.0" encoding="UTF-8"?>
<svg xmlns="http://www.w3.org/2000/svg" xmlns:xlink="http://www.w3.org/1999/xlink" width="47" height="47" viewBox="0 0 47 47" version="1.1">
<defs>
<clipPath id="clip1">
  <path d="M 3 3 L 43 3 L 43 43 L 3 43 Z M 3 3 "/>
</clipPath>
</defs>
<g id="surface33676">
<path style=" stroke:none;fill-rule:evenodd;fill:rgb(74.509804%,74.509804%,74.509804%);fill-opacity:1;" d="M 43 23 C 43 34.046875 34.046875 43 23 43 C 11.953125 43 3 34.046875 3 23 C 3 11.953125 11.953125 3 23 3 C 34.046875 3 43 11.953125 43 23 Z M 43 23 "/>
<g clip-path="url(#clip1)" clip-rule="nonzero">
<path style="fill:none;stroke-width:2;stroke-linecap:round;stroke-linejoin:round;stroke:rgb(0%,0%,0%);stroke-opacity:1;stroke-miterlimit:10;" d="M 3 3 C 3 3 43 3 43 3 C 43 3 43 43 43 43 C 43 43 3 43 3 43 C 3 43 3 3 3 3 Z M 3 3 "/>
</g>
</g>
</svg>
