<?xml version="1.0" encoding="UTF-8" standalone="no"?>
<svg xmlns="http://www.w3.org/2000/svg" height="77" width="87" version="1.1" viewBox="0 0 87 77">
 <defs>
  <clipPath id="clip1">
   <path d="m23 13h20v50h-20z"/>
  </clipPath>
 </defs>
 <g id="surface14820">
  <path style="fill-rule:evenodd;fill:#23238c" d="m83 38c0 2.762-4.477 5-10 5s-10-2.238-10-5 4.477-5 10-5 10 2.238 10 5z"/>
  <path style="fill-rule:evenodd;fill:#695acd" d="m63 38c0 8.285-4.477 15-10 15s-10-6.715-10-15 4.477-15 10-15 10 6.715 10 15z"/>
  <path style="fill-rule:evenodd;fill:#7a68ed" d="m43 38c0 13.809-4.477 25-10 25s-10-11.191-10-25 4.477-25 10-25 10 11.191 10 25z"/>
  <g clip-path="url(#clip1)">
   <path style="stroke-linejoin:round;stroke:#000;stroke-linecap:round;stroke-miterlimit:10;stroke-width:2;fill:none" d="m23 13h20v50h-20v-50z"/>
  </g>
  <path style="fill-rule:evenodd;fill:#b0c3de" d="m23 38c0 19.328-4.477 35-10 35-5.5234 0-10-15.672-10-35s4.4766-35 10-35c5.523 0 10 15.672 10 35z"/>
 </g>
</svg>
