<?xml version="1.0" encoding="UTF-8"?>
<svg xmlns="http://www.w3.org/2000/svg" xmlns:xlink="http://www.w3.org/1999/xlink" width="72" height="99" viewBox="0 0 72 99" version="1.1">
<g id="surface33628">
<path style=" stroke:none;fill-rule:nonzero;fill:rgb(74.509804%,74.509804%,74.509804%);fill-opacity:1;" d="M 15.359375 64.554688 C 15.359375 64.554688 67.722656 83.574219 67.722656 83.574219 C 67.722656 83.574219 3 83.574219 3 83.574219 C 3 83.574219 55.359375 64.554688 55.359375 64.554688 C 55.359375 64.554688 35.359375 95.332031 35.359375 95.332031 C 35.359375 95.332031 15.359375 64.554688 15.359375 64.554688 Z M 15.359375 64.554688 "/>
<path style=" stroke:none;fill-rule:nonzero;fill:rgb(69.803922%,13.333333%,13.333333%);fill-opacity:1;" d="M 15.359375 64.554688 C 15.359375 64.554688 67.722656 26.511719 67.722656 26.511719 C 67.722656 26.511719 3 26.511719 3 26.511719 C 3 26.511719 55.359375 64.554688 55.359375 64.554688 C 55.359375 64.554688 35.359375 3 35.359375 3 C 35.359375 3 15.359375 64.554688 15.359375 64.554688 Z M 15.359375 64.554688 "/>
</g>
</svg>
